<svg id="Capa_1" enable-background="new 0 0 512.106 512.106" height="512" viewBox="0 0 512.106 512.106" width="512" xmlns="http://www.w3.org/2000/svg"><g><path d="m482.053 211h-30v-181h-46v60h-90v-60h-45v181h-30v-181h-45v60h-90v-60h-46v181h-30v-211h-30c0 4.77 0 520.589 0 512h30v-30h452v30h30c0-109.733 0-391.145 0-512h-30zm0 241h-30v-181h-46v60h-90v-60h-45v181h-30v-181h-45v60h-90v-60h-46v181h-30v-211h452z"/><path d="m136.053 271h30v30h-30z"/><path d="m346.053 271h30v30h-30z"/><path d="m136.053 30h30v30h-30z"/><path d="m346.053 30h30v30h-30z"/></g></svg>