<svg id="svg" version="1.1" xmlns="http://www.w3.org/2000/svg" xmlns:xlink="http://www.w3.org/1999/xlink" width="400" height="534.4055140723722" viewBox="0, 0, 400,534.4055140723722"><g id="svgg"><path id="path0" d="M140.149 28.228 C 140.149 56.520,140.043 55.494,143.304 58.755 C 146.425 61.876,148.555 62.542,155.830 62.669 L 161.287 62.765 161.287 58.983 L 161.287 55.201 157.668 55.086 C 152.452 54.921,150.109 53.800,148.465 50.685 L 147.846 49.512 147.846 37.220 L 147.846 24.928 153.418 24.867 L 158.989 24.805 158.989 21.133 L 158.989 17.461 153.360 17.461 L 147.731 17.461 147.731 10.913 L 147.731 4.365 143.940 4.365 L 140.149 4.365 140.149 28.228 M187.364 16.765 C 177.472 18.913,172.100 25.612,171.123 37.018 C 169.842 51.982,176.181 61.929,187.962 63.440 C 193.033 64.090,201.034 60.695,201.034 57.893 C 201.034 57.417,202.477 55.359,206.770 49.709 L 212.506 42.160 212.514 39.087 C 212.545 26.835,207.956 19.409,198.851 16.982 C 196.128 16.256,190.223 16.144,187.364 16.765 M259.276 16.765 C 247.679 19.284,241.821 28.842,243.033 43.269 C 244.046 55.328,249.733 62.139,259.875 63.440 C 264.905 64.085,272.947 60.672,272.947 57.892 C 272.947 57.394,274.305 55.454,278.681 49.700 L 284.416 42.160 284.424 39.288 C 284.462 26.864,279.895 19.407,270.764 16.980 C 268.038 16.256,262.132 16.145,259.276 16.765 M310.245 16.652 C 299.879 18.533,294.679 26.602,294.783 40.642 L 294.792 41.930 300.641 49.623 C 304.758 55.037,306.491 57.490,306.491 57.904 C 306.491 60.488,314.165 63.964,318.897 63.523 C 330.929 62.403,337.587 52.342,336.353 37.148 C 335.155 22.396,324.536 14.059,310.245 16.652 M361.840 16.655 C 351.880 18.540,347.069 25.446,346.561 38.584 L 346.432 41.930 352.305 49.627 C 356.557 55.201,358.178 57.492,358.181 57.936 C 358.184 58.393,358.549 58.878,359.619 59.846 C 367.149 66.661,380.295 63.669,385.262 54.009 C 389.764 45.255,388.840 30.512,383.357 23.614 C 378.923 18.034,369.926 15.125,361.840 16.655 M6.192 18.782 C 6.416 19.509,9.835 30.132,13.791 42.389 C 21.271 65.569,21.483 66.346,20.810 68.110 C 19.705 71.002,17.832 71.683,10.986 71.683 L 5.974 71.683 5.974 75.359 L 5.974 79.035 12.600 79.035 C 22.794 79.035,27.257 77.332,29.456 72.602 C 29.939 71.565,46.870 18.097,46.870 17.611 C 46.870 17.529,45.186 17.461,43.129 17.461 L 39.389 17.461 32.989 38.771 C 26.577 60.119,26.345 60.835,26.112 60.046 C 25.480 57.908,13.711 18.774,13.530 18.208 L 13.290 17.461 9.538 17.461 L 5.786 17.461 6.192 18.782 M57.440 30.500 C 57.441 46.384,57.695 48.563,60.102 53.357 C 66.732 66.559,86.561 67.069,93.695 54.222 C 96.581 49.026,96.784 47.562,96.895 31.189 L 96.988 17.461 93.076 17.461 L 89.165 17.461 89.089 30.844 C 89.005 45.569,89.028 45.313,87.519 48.414 C 83.500 56.675,70.713 56.633,66.727 48.346 C 65.198 45.165,65.180 44.972,65.081 30.500 L 64.993 17.461 61.215 17.461 L 57.438 17.461 57.440 30.500 M116.570 17.916 C 112.235 19.052,108.705 22.173,107.596 25.847 C 107.210 27.126,107.180 28.504,107.180 44.917 L 107.180 62.608 111.028 62.671 L 114.877 62.734 114.877 46.993 C 114.877 29.599,114.830 30.184,116.358 28.180 C 118.185 25.786,120.510 25.043,126.183 25.043 L 130.270 25.043 130.270 21.252 L 130.270 17.461 124.239 17.474 C 119.115 17.485,117.962 17.551,116.570 17.916 M196.308 24.043 C 202.046 25.494,204.808 29.958,205.101 38.254 C 205.488 49.227,201.801 55.346,194.079 56.544 C 185.683 57.847,179.912 52.635,178.944 42.875 C 177.591 29.238,185.013 21.188,196.308 24.043 M268.237 24.046 C 274.395 25.594,276.960 30.255,276.942 39.862 C 276.922 50.262,273.359 55.548,265.675 56.576 C 255.650 57.917,249.349 49.472,250.887 36.754 C 252.117 26.589,258.821 21.678,268.237 24.046 M319.100 23.921 C 326.556 25.542,330.653 36.115,327.948 46.755 C 324.479 60.401,306.122 60.028,302.889 46.246 C 302.297 43.721,302.298 35.345,302.891 32.970 C 304.704 25.709,311.045 22.169,319.100 23.921 M370.821 23.945 C 378.069 25.683,382.130 35.679,379.790 46.017 C 376.375 61.106,356.464 60.152,354.316 44.796 C 352.192 29.617,358.939 21.094,370.821 23.945 M294.780 60.827 L 294.773 79.035 298.564 79.035 L 302.355 79.035 302.355 69.518 L 302.355 60.001 301.454 58.317 C 300.958 57.392,299.344 53.636,297.867 49.971 C 296.390 46.307,295.093 43.153,294.984 42.964 C 294.873 42.770,294.784 50.578,294.780 60.827 M346.468 60.846 L 346.468 79.035 350.144 79.035 L 353.820 79.035 353.820 69.336 L 353.820 59.637 352.925 57.906 C 352.433 56.954,350.820 53.176,349.342 49.512 C 347.863 45.847,346.611 42.806,346.560 42.753 C 346.509 42.701,346.468 50.842,346.468 60.846 M209.765 49.571 C 208.311 53.200,206.683 57.037,206.146 58.098 C 205.327 59.715,205.169 60.244,205.169 61.374 L 205.169 62.723 208.845 62.723 L 212.522 62.723 212.522 52.843 C 212.522 47.410,212.496 42.966,212.464 42.968 C 212.433 42.971,211.218 45.942,209.765 49.571 M281.373 50.274 C 279.752 54.289,278.124 58.061,277.754 58.655 C 277.191 59.560,277.082 59.976,277.082 61.229 L 277.082 62.723 280.758 62.723 L 284.434 62.723 284.434 52.843 C 284.434 47.410,284.408 42.966,284.377 42.968 C 284.345 42.971,282.993 46.258,281.373 50.274 M189.202 206.911 C 181.241 214.806,161.804 234.033,146.008 249.636 C 130.213 265.240,113.346 282.019,108.526 286.922 L 99.764 295.839 99.566 298.810 C 99.346 302.119,99.392 388.683,99.615 390.409 C 99.903 392.637,98.749 392.466,113.276 392.430 C 126.967 392.396,126.921 392.398,127.187 391.652 C 127.285 391.378,127.404 378.825,127.453 363.756 C 127.509 346.502,127.623 336.358,127.762 336.358 C 128.306 336.358,133.964 341.883,151.282 359.325 C 180.524 388.777,200.029 408.233,202.510 410.425 L 204.791 412.440 223.150 394.100 C 233.248 384.014,249.687 367.490,259.681 357.381 C 276.432 340.437,280.335 336.588,280.771 336.588 C 280.859 336.588,280.974 349.145,281.025 364.492 C 281.076 379.839,281.167 392.442,281.225 392.499 C 281.284 392.556,287.459 392.639,294.946 392.683 L 308.559 392.763 308.722 391.959 C 308.924 390.965,308.946 361.796,308.772 325.086 L 308.640 297.385 308.125 296.320 C 307.730 295.504,299.124 286.790,271.381 259.111 C 214.230 202.095,204.525 192.518,203.929 192.544 C 203.790 192.550,197.163 199.015,189.202 206.911 M212.015 238.669 C 220.524 246.839,227.456 253.772,228.314 254.969 L 229.015 255.946 225.421 259.473 C 223.444 261.413,217.435 267.363,212.067 272.696 C 203.374 281.334,202.256 282.369,201.826 282.173 C 200.820 281.715,198.002 279.041,194.478 275.202 C 192.469 273.014,187.881 268.247,184.282 264.609 L 177.738 257.995 191.052 244.824 L 204.365 231.652 205.008 232.104 C 205.361 232.353,208.514 235.307,212.015 238.669 M261.854 288.742 C 269.155 295.913,275.129 301.858,275.129 301.953 C 275.129 302.126,245.633 331.943,218.877 358.817 L 204.409 373.349 203.583 372.730 C 202.114 371.630,192.515 362.026,181.010 350.144 C 174.831 343.762,168.336 337.197,166.577 335.554 C 164.818 333.912,160.142 329.157,156.187 324.988 C 148.149 316.517,137.933 306.182,135.351 303.910 L 133.654 302.417 134.314 301.203 C 135.200 299.576,156.023 278.291,157.450 277.554 L 158.094 277.222 180.126 299.253 L 202.159 321.285 202.803 320.962 C 203.157 320.785,213.527 310.542,225.847 298.201 C 238.168 285.860,248.322 275.749,248.413 275.733 C 248.504 275.717,254.552 281.571,261.854 288.742 M198.736 447.457 C 148.380 447.613,105.241 447.751,102.872 447.764 L 98.564 447.789 98.564 461.266 L 98.564 474.743 155.256 474.591 C 186.436 474.508,233.891 474.372,260.712 474.288 L 309.477 474.137 309.477 460.618 L 309.477 447.099 299.885 447.137 C 294.609 447.158,249.092 447.302,198.736 447.457 " stroke="none" fill="#f5f5f5" fill-rule="evenodd"></path><path id="path1" d="M136.014 6.720 L 136.014 13.441 126.077 13.441 L 116.140 13.441 114.302 14.087 C 112.466 14.733,109.736 16.124,109.474 16.548 C 109.114 17.131,108.903 16.634,108.903 15.201 L 108.903 13.629 103.007 13.477 C 99.764 13.394,94.393 13.326,91.072 13.326 L 85.033 13.326 84.949 28.317 C 84.858 44.733,84.886 44.382,83.454 46.932 C 81.649 50.145,79.708 50.255,78.228 47.228 C 77.064 44.850,76.984 43.620,76.975 28.008 L 76.967 13.627 70.706 13.475 C 67.263 13.391,58.087 13.324,50.316 13.325 L 36.185 13.328 33.211 23.221 C 31.574 28.662,30.171 33.154,30.092 33.203 C 30.012 33.252,28.623 28.868,27.003 23.460 L 24.060 13.627 18.405 13.477 C 15.296 13.394,9.875 13.326,6.360 13.326 L -0.031 13.326 0.130 13.843 C 0.219 14.127,4.051 26.036,8.646 40.306 C 16.308 64.105,16.972 66.294,16.672 66.753 C 16.192 67.486,15.539 67.547,8.242 67.547 L 1.608 67.547 1.608 75.359 L 1.608 83.171 4.825 83.171 L 8.041 83.171 8.041 84.105 L 8.041 85.040 17.863 84.954 C 29.805 84.850,31.337 84.548,36.012 81.373 C 40.249 78.496,40.458 78.030,47.290 56.295 L 53.001 38.126 53.148 41.527 C 53.790 56.353,60.886 65.402,73.636 67.650 C 74.647 67.829,76.334 68.239,77.386 68.562 C 85.546 71.071,95.686 68.489,101.493 62.424 L 102.929 60.924 102.929 63.891 L 102.929 66.858 106.146 66.858 L 109.362 66.858 109.362 67.662 L 109.362 68.466 118.093 68.466 L 126.824 68.466 126.824 50.692 L 126.824 32.917 127.322 32.283 C 128.162 31.216,129.003 31.017,132.675 31.017 L 136.014 31.017 136.014 42.238 C 136.014 52.580,136.049 53.595,136.458 55.197 C 137.891 60.800,142.715 65.116,148.995 66.413 C 151.494 66.929,152.144 67.088,155.083 67.902 C 156.959 68.421,157.356 68.443,165.135 68.454 L 173.234 68.466 173.234 64.646 L 173.234 60.825 174.440 61.887 C 177.497 64.580,180.814 66.297,184.492 67.090 C 185.692 67.349,187.760 67.861,189.087 68.227 C 195.646 70.039,200.882 69.828,205.353 67.571 C 207.127 66.675,207.237 66.680,207.237 67.662 L 207.237 68.466 215.968 68.466 L 224.698 68.466 224.693 55.543 C 224.684 33.510,224.095 28.956,220.474 22.906 C 215.583 14.733,208.159 11.938,191.729 12.087 C 183.484 12.161,175.551 16.025,171.707 21.837 L 171.051 22.828 170.989 18.192 L 170.927 13.555 168.096 13.555 C 166.539 13.555,164.008 13.488,162.471 13.405 L 159.678 13.255 159.678 6.779 L 159.678 0.303 153.992 0.152 C 150.864 0.069,145.540 0.001,142.160 0.000 L 136.014 0.000 136.014 6.720 M147.961 10.798 L 147.961 17.461 153.590 17.461 L 159.219 17.461 159.219 21.252 L 159.219 25.043 153.590 25.043 L 147.961 25.043 147.961 37.183 L 147.961 49.324 148.673 50.749 C 150.201 53.806,152.223 54.744,157.553 54.866 L 161.516 54.956 161.516 58.840 L 161.516 62.723 156.170 62.723 C 148.850 62.723,146.843 62.158,143.680 59.209 C 139.822 55.612,140.061 57.591,139.975 28.547 L 139.902 4.136 143.931 4.136 L 147.961 4.136 147.961 10.798 M261.459 12.092 C 246.518 13.966,238.829 23.440,238.829 39.977 C 238.828 55.221,244.868 64.544,256.397 67.094 C 257.601 67.360,259.673 67.874,260.999 68.236 C 267.605 70.037,272.802 69.824,277.266 67.571 C 279.040 66.675,279.150 66.680,279.150 67.662 L 279.150 68.466 284.894 68.466 L 290.638 68.466 290.638 75.818 L 290.638 83.171 293.854 83.171 L 297.071 83.171 297.071 84.090 L 297.071 85.009 305.686 85.009 L 314.302 85.009 314.302 76.270 L 314.302 67.532 315.508 67.691 C 316.172 67.778,317.025 67.979,317.404 68.137 C 324.709 71.179,334.759 68.958,340.931 62.938 L 342.332 61.571 342.332 72.371 L 342.332 83.171 345.434 83.171 L 348.535 83.171 348.535 84.090 L 348.535 85.009 357.151 85.009 L 365.767 85.009 365.767 76.261 L 365.767 67.514 367.081 67.678 C 367.804 67.769,368.708 67.974,369.091 68.133 C 378.201 71.938,390.782 67.509,395.961 58.673 C 401.191 49.752,401.494 34.787,396.639 25.287 C 392.616 17.417,383.922 12.406,374.295 12.407 C 372.953 12.407,370.733 12.286,369.361 12.137 C 358.940 11.008,348.039 16.401,345.271 24.054 C 344.910 25.053,344.894 25.044,343.825 23.274 C 338.971 15.227,330.220 11.928,314.187 12.102 C 304.868 12.204,297.547 16.300,293.975 23.413 L 293.351 24.654 292.705 23.473 C 289.926 18.390,284.965 14.702,278.896 13.205 C 276.210 12.543,264.052 11.767,261.459 12.092 M195.756 16.321 C 203.578 17.277,208.699 21.260,211.045 28.213 C 212.544 32.655,212.597 33.312,212.694 48.765 L 212.781 62.723 208.975 62.723 L 205.169 62.723 205.169 61.236 C 205.169 59.962,205.298 59.496,206.075 57.962 C 207.090 55.959,212.660 42.271,212.316 42.623 C 210.711 44.271,201.273 57.214,201.269 57.774 C 201.249 60.368,194.862 63.531,189.661 63.521 C 177.861 63.501,170.940 54.841,170.939 40.092 C 170.937 25.923,177.083 18.138,189.776 16.232 C 190.989 16.049,193.890 16.093,195.756 16.321 M267.668 16.321 C 277.737 17.552,283.271 23.820,284.420 35.292 C 284.548 36.569,284.656 43.264,284.660 50.169 L 284.668 62.723 280.875 62.723 L 277.082 62.723 277.082 61.229 C 277.082 59.971,277.211 59.483,277.904 58.124 C 278.864 56.241,284.555 42.290,284.228 42.623 C 282.886 43.989,273.183 57.208,273.180 57.674 C 273.163 60.495,266.105 63.856,260.792 63.574 C 249.378 62.967,242.841 54.452,242.854 40.207 C 242.868 25.811,248.883 18.155,261.689 16.232 C 262.902 16.049,265.803 16.093,267.668 16.321 M320.965 16.847 C 331.650 19.606,336.976 28.107,336.528 41.688 C 336.076 55.388,329.140 63.502,317.863 63.521 C 312.739 63.530,306.261 60.380,306.261 57.879 C 306.261 57.302,295.320 42.341,295.076 42.584 C 294.955 42.705,301.010 57.345,301.648 58.477 L 302.355 59.729 302.355 69.382 L 302.355 79.035 298.564 79.035 L 294.773 79.035 294.773 57.834 C 294.773 35.628,294.813 34.576,295.823 30.327 C 298.426 19.374,308.934 13.740,320.965 16.847 M370.402 16.421 C 381.409 18.080,387.681 25.854,388.201 38.484 C 388.835 53.890,381.694 63.479,369.558 63.517 C 364.464 63.533,357.955 60.382,357.955 57.900 C 357.955 57.333,346.996 42.362,346.755 42.600 C 346.633 42.721,352.465 56.853,353.235 58.302 L 354.049 59.836 354.049 69.435 L 354.049 79.035 350.258 79.035 L 346.468 79.035 346.468 57.676 C 346.468 34.525,346.513 33.521,347.744 29.273 C 350.540 19.623,359.171 14.727,370.402 16.421 M19.868 38.814 C 23.404 50.559,26.331 60.133,26.373 60.091 C 26.415 60.048,29.325 50.465,32.838 38.795 L 39.227 17.576 43.190 17.513 C 46.800 17.456,47.140 17.484,47.007 17.831 C 46.926 18.040,43.088 30.217,38.477 44.890 C 29.574 73.219,29.509 73.404,27.806 75.079 C 24.436 78.395,22.586 78.892,13.268 78.984 L 5.744 79.058 5.744 75.392 L 5.744 71.726 11.086 71.623 C 17.133 71.507,17.732 71.387,19.242 70.000 C 21.932 67.528,22.224 68.944,13.333 41.362 C 9.159 28.413,5.744 17.738,5.744 17.640 C 5.744 17.542,7.476 17.461,9.592 17.461 L 13.441 17.461 19.868 38.814 M65.310 30.844 C 65.402 45.567,65.371 45.223,66.895 48.432 C 70.774 56.601,83.616 56.435,87.512 48.166 C 88.955 45.102,88.980 44.817,89.082 30.500 L 89.175 17.461 93.180 17.461 L 97.186 17.461 97.183 27.972 C 97.180 43.926,96.861 47.263,94.886 52.008 C 88.623 67.052,67.173 67.780,59.964 53.193 C 57.489 48.185,57.209 45.801,57.209 29.762 L 57.209 17.461 61.217 17.461 L 65.226 17.461 65.310 30.844 M130.270 21.351 L 130.270 25.240 125.388 25.314 C 119.251 25.407,117.397 26.183,115.788 29.333 L 115.221 30.442 115.159 46.582 L 115.097 62.723 111.081 62.723 L 107.065 62.723 107.068 45.204 C 107.072 23.877,106.954 24.736,110.360 21.264 C 113.490 18.073,115.552 17.496,123.894 17.476 L 130.270 17.461 130.270 21.351 M188.227 24.110 C 182.016 25.797,179.081 30.975,179.103 40.207 C 179.131 52.316,185.506 58.521,195.500 56.165 C 203.122 54.368,207.171 43.636,204.350 32.706 C 202.552 25.739,195.692 22.082,188.227 24.110 M260.140 24.110 C 253.854 25.817,251.000 30.897,251.030 40.322 C 251.068 52.213,257.188 58.316,267.019 56.265 C 274.895 54.623,279.134 43.830,276.266 32.720 C 274.468 25.754,267.596 22.085,260.140 24.110 M311.775 24.024 C 304.809 25.533,301.567 32.078,302.529 42.693 C 303.376 52.033,308.137 56.806,316.255 56.455 C 324.357 56.105,328.385 50.724,328.417 40.207 C 328.454 27.960,322.106 21.787,311.775 24.024 M363.374 24.043 C 356.781 25.456,353.668 31.238,354.115 41.241 C 354.575 51.533,359.410 56.848,367.949 56.449 C 376.016 56.072,380.115 50.561,380.115 40.092 C 380.115 27.994,373.687 21.832,363.374 24.043 M198.886 30.506 C 200.836 33.055,201.571 39.812,200.470 45.060 C 199.553 49.434,196.114 52.849,194.184 51.302 C 189.227 47.328,189.643 33.697,194.819 30.494 C 196.831 29.249,197.927 29.252,198.886 30.506 M270.815 30.527 C 274.937 35.916,272.671 50.544,267.514 51.838 C 265.587 52.322,263.320 48.329,262.780 43.502 C 261.961 36.170,264.321 30.697,268.750 29.660 C 269.907 29.389,269.962 29.412,270.815 30.527 M321.761 30.360 C 326.211 35.648,324.956 48.807,319.746 51.495 C 315.635 53.617,312.478 41.042,315.257 33.614 C 316.427 30.490,320.258 28.573,321.761 30.360 M373.456 30.360 C 376.983 34.552,376.965 45.654,373.423 49.862 C 371.658 51.960,370.453 52.243,369.014 50.897 C 364.892 47.041,364.742 34.141,368.783 30.951 C 370.619 29.501,372.529 29.259,373.456 30.360 M167.643 31.304 C 166.443 36.213,166.695 47.240,168.090 50.874 C 168.206 51.176,168.016 51.235,166.940 51.235 C 166.232 51.235,165.652 51.132,165.652 51.005 C 165.652 50.868,164.749 50.773,163.412 50.770 C 159.530 50.761,159.678 51.193,159.678 39.877 L 159.678 30.787 163.724 30.787 L 167.770 30.787 167.643 31.304 M190.695 149.127 C 81.967 156.387,1.283 250.304,10.699 358.644 C 19.743 462.709,111.216 541.041,215.393 533.934 C 329.255 526.166,411.104 423.079,392.969 310.281 C 378.114 217.888,298.273 149.608,204.365 148.990 C 198.553 148.951,192.401 149.013,190.695 149.127 M206.612 194.650 C 208.030 195.941,221.700 209.460,236.990 224.692 C 252.280 239.924,274.424 261.976,286.198 273.696 C 303.882 291.298,307.707 295.214,308.187 296.210 L 308.767 297.415 308.926 342.906 C 309.013 367.926,309.008 389.406,308.915 390.638 L 308.745 392.878 294.867 392.878 L 280.990 392.878 280.931 364.703 L 280.873 336.528 279.948 337.305 C 279.439 337.732,262.396 354.779,242.073 375.187 C 221.751 395.594,204.997 412.322,204.842 412.358 C 204.239 412.501,198.044 406.479,177.381 385.668 C 136.352 344.345,128.195 336.288,127.795 336.690 C 127.703 336.782,127.628 348.557,127.628 362.857 C 127.627 377.157,127.539 389.648,127.430 390.615 L 127.233 392.372 113.990 392.465 C 100.219 392.562,100.081 392.553,99.668 391.543 C 99.349 390.763,99.127 306.379,99.427 300.013 L 99.630 295.717 110.297 284.960 C 116.165 279.044,132.906 262.409,147.501 247.993 C 162.096 233.577,180.706 215.155,188.857 207.054 C 197.007 198.954,203.757 192.321,203.855 192.315 C 203.954 192.308,205.194 193.359,206.612 194.650 M191.142 244.913 L 177.944 257.974 183.937 264.024 C 187.234 267.352,191.644 271.936,193.737 274.210 C 197.991 278.833,199.490 280.323,201.101 281.530 L 202.202 282.354 211.573 272.998 C 216.728 267.852,222.728 261.904,224.908 259.781 L 228.870 255.920 227.945 254.726 C 226.458 252.807,205.814 232.641,204.757 232.076 C 204.402 231.886,202.376 233.796,191.142 244.913 M229.980 294.367 C 211.869 312.594,202.766 321.509,202.399 321.376 C 202.298 321.340,192.245 311.415,180.060 299.321 L 157.905 277.332 156.437 278.545 C 155.629 279.212,152.125 282.692,148.650 286.279 C 145.175 289.866,140.672 294.460,138.644 296.487 C 136.256 298.873,134.740 300.583,134.344 301.337 L 133.732 302.503 134.925 303.405 C 136.680 304.734,146.353 314.467,156.773 325.388 C 161.807 330.663,165.993 334.982,166.076 334.985 C 166.391 334.997,169.895 338.531,183.501 352.556 C 197.066 366.540,203.653 373.004,204.337 373.004 C 204.585 373.004,258.501 318.848,272.919 304.117 L 275.129 301.858 272.343 299.177 C 270.811 297.703,264.813 291.830,259.015 286.126 L 248.472 275.755 229.980 294.367 M309.555 456.577 C 309.638 461.789,309.707 467.877,309.707 470.106 L 309.707 474.157 302.298 474.295 C 298.222 474.370,264.543 474.485,227.455 474.551 C 190.368 474.617,146.143 474.737,129.179 474.819 L 98.334 474.969 98.334 461.264 L 98.334 447.559 121.022 447.525 C 133.501 447.507,165.112 447.424,191.269 447.342 C 217.427 447.259,254.707 447.171,274.115 447.146 L 309.403 447.099 309.555 456.577 " stroke="none" fill="#3c3c3c" fill-rule="evenodd"></path><path id="path2" d="M197.120 198.909 L 195.864 200.230 197.186 198.974 C 198.413 197.807,198.612 197.588,198.441 197.588 C 198.405 197.588,197.811 198.182,197.120 198.909 M217.806 205.744 C 218.235 206.186,218.637 206.548,218.700 206.548 C 218.763 206.548,218.464 206.186,218.036 205.744 C 217.607 205.302,217.205 204.940,217.141 204.940 C 217.078 204.940,217.377 205.302,217.806 205.744 M170.009 225.790 L 168.754 227.111 170.075 225.855 C 171.302 224.688,171.501 224.469,171.330 224.469 C 171.295 224.469,170.700 225.063,170.009 225.790 M150.246 245.319 L 149.454 246.180 150.316 245.389 C 151.118 244.652,151.283 244.457,151.108 244.457 C 151.069 244.457,150.682 244.845,150.246 245.319 M133.015 262.321 L 132.223 263.182 133.084 262.390 C 133.886 261.653,134.052 261.459,133.876 261.459 C 133.838 261.459,133.450 261.847,133.015 262.321 M183.573 263.871 C 184.001 264.314,184.404 264.675,184.467 264.675 C 184.530 264.675,184.231 264.314,183.802 263.871 C 183.374 263.429,182.971 263.067,182.908 263.067 C 182.845 263.067,183.144 263.429,183.573 263.871 M215.153 269.328 L 214.245 270.304 215.221 269.396 C 216.129 268.552,216.303 268.352,216.129 268.352 C 216.092 268.352,215.652 268.791,215.153 269.328 M106.480 288.857 L 105.572 289.833 106.548 288.925 C 107.456 288.081,107.630 287.881,107.456 287.881 C 107.419 287.881,106.979 288.320,106.480 288.857 M222.853 301.379 L 221.597 302.700 222.918 301.444 C 224.145 300.277,224.344 300.057,224.174 300.057 C 224.138 300.057,223.543 300.652,222.853 301.379 M99.311 305.916 C 99.314 306.422,99.361 306.601,99.416 306.316 C 99.471 306.030,99.469 305.616,99.411 305.397 C 99.354 305.177,99.309 305.411,99.311 305.916 M211.477 312.751 L 210.569 313.728 211.545 312.820 C 212.453 311.975,212.627 311.775,212.453 311.775 C 212.416 311.775,211.976 312.214,211.477 312.751 M308.648 317.059 C 308.648 318.765,308.684 319.463,308.729 318.610 C 308.773 317.757,308.773 316.361,308.729 315.508 C 308.684 314.655,308.648 315.353,308.648 317.059 M251.687 325.617 L 250.316 327.053 251.752 325.682 C 253.086 324.408,253.293 324.182,253.123 324.182 C 253.088 324.182,252.441 324.828,251.687 325.617 M308.859 344.285 C 308.861 345.043,308.903 345.326,308.955 344.913 C 309.006 344.500,309.005 343.879,308.952 343.534 C 308.900 343.189,308.858 343.527,308.859 344.285 M223.773 353.762 L 222.286 355.313 223.837 353.826 C 225.277 352.445,225.493 352.211,225.324 352.211 C 225.288 352.211,224.591 352.909,223.773 353.762 M99.335 359.908 C 99.334 361.045,99.373 361.540,99.421 361.006 C 99.469 360.473,99.470 359.543,99.422 358.939 C 99.375 358.335,99.336 358.771,99.335 359.908 M163.240 371.511 C 163.733 372.016,164.189 372.430,164.252 372.430 C 164.315 372.430,163.963 372.016,163.469 371.511 C 162.976 371.005,162.520 370.592,162.457 370.592 C 162.394 370.592,162.746 371.005,163.240 371.511 M281.738 392.813 C 282.087 392.866,282.604 392.864,282.887 392.810 C 283.169 392.755,282.883 392.712,282.252 392.714 C 281.620 392.715,281.389 392.760,281.738 392.813 M263.113 447.270 C 264.212 447.312,266.073 447.312,267.249 447.271 C 268.424 447.229,267.524 447.195,265.250 447.194 C 262.975 447.194,262.014 447.228,263.113 447.270 M178.690 447.500 C 179.859 447.542,181.772 447.542,182.941 447.500 C 184.110 447.459,183.153 447.424,180.816 447.424 C 178.478 447.424,177.522 447.459,178.690 447.500 M98.966 447.721 C 99.250 447.776,99.716 447.776,100.000 447.721 C 100.284 447.666,100.052 447.621,99.483 447.621 C 98.914 447.621,98.682 447.666,98.966 447.721 M98.429 466.973 C 98.429 469.248,98.464 470.147,98.506 468.972 C 98.547 467.796,98.547 465.935,98.505 464.836 C 98.463 463.737,98.429 464.698,98.429 466.973 M273.808 474.381 C 274.977 474.423,276.890 474.423,278.059 474.381 C 279.227 474.340,278.271 474.306,275.933 474.306 C 273.596 474.306,272.639 474.340,273.808 474.381 M189.362 474.611 C 190.462 474.653,192.323 474.653,193.498 474.611 C 194.673 474.570,193.774 474.535,191.499 474.535 C 189.225 474.535,188.263 474.569,189.362 474.611 M104.940 474.841 C 106.109 474.883,108.021 474.883,109.190 474.841 C 110.359 474.799,109.403 474.765,107.065 474.765 C 104.727 474.765,103.771 474.799,104.940 474.841 " stroke="none" fill="#9c9c9d" fill-rule="evenodd"></path><path id="path3" d="M140.030 27.685 C 140.030 40.701,140.058 45.992,140.092 39.443 C 140.126 32.894,140.126 22.244,140.092 15.778 C 140.058 9.311,140.030 14.670,140.030 27.685 M65.127 29.179 C 65.127 35.686,65.156 38.349,65.192 35.095 C 65.228 31.841,65.228 26.516,65.192 23.262 C 65.156 20.009,65.127 22.671,65.127 29.179 M97.062 28.719 C 97.062 34.974,97.092 37.533,97.128 34.406 C 97.164 31.278,97.164 26.160,97.128 23.033 C 97.092 19.905,97.062 22.464,97.062 28.719 M159.083 21.252 C 159.083 23.400,159.117 24.310,159.160 23.274 C 159.202 22.237,159.203 20.480,159.160 19.368 C 159.118 18.256,159.083 19.104,159.083 21.252 M300.505 21.310 L 299.713 22.171 300.574 21.379 C 301.376 20.642,301.542 20.448,301.366 20.448 C 301.328 20.448,300.940 20.836,300.505 21.310 M382.079 22.171 C 382.508 22.613,382.910 22.975,382.974 22.975 C 383.037 22.975,382.738 22.613,382.309 22.171 C 381.880 21.729,381.478 21.367,381.415 21.367 C 381.352 21.367,381.651 21.729,382.079 22.171 M124.939 25.214 C 125.988 25.257,127.642 25.257,128.615 25.214 C 129.588 25.171,128.731 25.136,126.709 25.136 C 124.687 25.136,123.891 25.172,124.939 25.214 M200.574 26.264 C 200.574 26.303,200.910 26.639,201.321 27.010 L 202.068 27.685 201.393 26.939 C 200.764 26.243,200.574 26.086,200.574 26.264 M375.876 26.996 C 376.305 27.438,376.707 27.800,376.770 27.800 C 376.833 27.800,376.534 27.438,376.106 26.996 C 375.677 26.554,375.275 26.192,375.211 26.192 C 375.148 26.192,375.447 26.554,375.876 26.996 M250.732 40.092 C 250.733 40.850,250.776 41.133,250.827 40.720 C 250.878 40.307,250.877 39.686,250.825 39.341 C 250.772 38.996,250.730 39.334,250.732 40.092 M178.806 40.092 C 178.808 40.597,178.855 40.777,178.910 40.491 C 178.965 40.205,178.963 39.792,178.906 39.572 C 178.848 39.353,178.803 39.586,178.806 40.092 M382.180 58.415 L 381.505 59.161 382.252 58.487 C 382.948 57.858,383.104 57.668,382.926 57.668 C 382.887 57.668,382.551 58.004,382.180 58.415 M200.215 59.334 L 199.540 60.080 200.287 59.406 C 200.698 59.034,201.034 58.698,201.034 58.659 C 201.034 58.481,200.844 58.638,200.215 59.334 M272.128 59.334 L 271.453 60.080 272.200 59.406 C 272.896 58.777,273.052 58.587,272.875 58.587 C 272.835 58.587,272.499 58.923,272.128 59.334 M201.030 195.003 L 198.392 197.702 201.091 195.064 C 203.599 192.613,203.895 192.303,203.730 192.303 C 203.696 192.303,202.481 193.518,201.030 195.003 M206.548 194.673 C 206.548 194.712,206.884 195.048,207.295 195.419 L 208.041 196.094 207.367 195.348 C 206.738 194.651,206.548 194.495,206.548 194.673 M214.704 202.642 C 215.963 203.906,217.045 204.940,217.108 204.940 C 217.171 204.940,216.193 203.906,214.934 202.642 C 213.675 201.379,212.593 200.345,212.530 200.345 C 212.467 200.345,213.445 201.379,214.704 202.642 M175.989 219.816 L 171.281 224.584 176.048 219.876 C 178.670 217.286,180.816 215.141,180.816 215.108 C 180.816 214.945,180.363 215.387,175.989 219.816 M199.538 236.473 L 194.945 241.126 199.598 236.533 C 203.921 232.265,204.354 231.821,204.191 231.821 C 204.158 231.821,202.064 233.914,199.538 236.473 M211.143 238.096 C 211.143 238.136,211.479 238.472,211.890 238.843 L 212.636 239.518 211.962 238.771 C 211.333 238.075,211.143 237.919,211.143 238.096 M153.931 241.643 L 151.063 244.572 153.992 241.704 C 155.603 240.126,156.921 238.808,156.921 238.774 C 156.921 238.609,156.596 238.922,153.931 241.643 M216.198 242.964 C 216.626 243.406,217.029 243.768,217.092 243.768 C 217.155 243.768,216.856 243.406,216.427 242.964 C 215.999 242.522,215.596 242.160,215.533 242.160 C 215.470 242.160,215.769 242.522,216.198 242.964 M223.090 249.627 C 224.539 251.080,225.777 252.269,225.840 252.269 C 225.903 252.269,224.769 251.080,223.320 249.627 C 221.871 248.173,220.634 246.984,220.570 246.984 C 220.507 246.984,221.641 248.173,223.090 249.627 M282.252 269.960 C 291.981 279.690,299.993 287.651,300.056 287.651 C 300.120 287.651,292.211 279.690,282.481 269.960 C 272.752 260.230,264.740 252.269,264.677 252.269 C 264.613 252.269,272.522 260.230,282.252 269.960 M136.815 258.530 L 133.831 261.574 136.875 258.590 C 139.703 255.819,140.024 255.485,139.859 255.485 C 139.825 255.485,138.456 256.855,136.815 258.530 M226.643 258.070 L 225.503 259.276 226.709 258.136 C 227.830 257.077,228.020 256.864,227.849 256.864 C 227.813 256.864,227.270 257.407,226.643 258.070 M187.134 267.433 C 188.646 268.949,189.935 270.190,189.999 270.190 C 190.062 270.190,188.876 268.949,187.364 267.433 C 185.851 265.916,184.562 264.675,184.499 264.675 C 184.436 264.675,185.621 265.916,187.134 267.433 M209.647 274.842 L 205.055 279.495 209.707 274.902 C 212.266 272.376,214.360 270.282,214.360 270.249 C 214.360 270.086,213.915 270.519,209.647 274.842 M120.042 275.072 L 117.519 277.657 120.103 275.133 C 122.504 272.789,122.792 272.487,122.627 272.487 C 122.593 272.487,121.430 273.650,120.042 275.072 M170.477 289.833 C 177.363 296.720,183.048 302.355,183.112 302.355 C 183.175 302.355,177.592 296.720,170.706 289.833 C 163.821 282.947,158.135 277.312,158.072 277.312 C 158.008 277.312,163.591 282.947,170.477 289.833 M243.419 280.816 L 240.896 283.400 243.481 280.877 C 245.882 278.533,246.170 278.231,246.004 278.231 C 245.970 278.231,244.807 279.394,243.419 280.816 M152.436 282.194 L 150.373 284.319 152.499 282.256 C 153.667 281.122,154.624 280.165,154.624 280.131 C 154.624 279.964,154.352 280.220,152.436 282.194 M256.749 283.975 C 257.881 285.112,258.859 286.043,258.922 286.043 C 258.985 286.043,258.111 285.112,256.979 283.975 C 255.847 282.837,254.869 281.907,254.806 281.907 C 254.742 281.907,255.617 282.837,256.749 283.975 M146.340 288.512 L 145.549 289.374 146.410 288.582 C 147.212 287.845,147.377 287.651,147.202 287.651 C 147.163 287.651,146.776 288.038,146.340 288.512 M102.581 292.763 L 99.598 295.807 102.642 292.824 C 104.316 291.183,105.686 289.813,105.686 289.779 C 105.686 289.614,105.353 289.935,102.581 292.763 M302.585 290.020 C 302.585 290.060,302.921 290.396,303.331 290.767 L 304.078 291.442 303.403 290.695 C 302.774 289.999,302.585 289.843,302.585 290.020 M140.945 294.141 L 139.805 295.348 141.011 294.207 C 141.674 293.580,142.217 293.038,142.217 293.001 C 142.217 292.830,142.004 293.020,140.945 294.141 M227.338 296.898 L 224.124 300.172 227.398 296.959 C 229.199 295.191,230.672 293.718,230.672 293.685 C 230.672 293.520,230.323 293.857,227.338 296.898 M268.696 295.692 C 269.828 296.829,270.806 297.760,270.869 297.760 C 270.932 297.760,270.058 296.829,268.926 295.692 C 267.794 294.555,266.816 293.624,266.753 293.624 C 266.690 293.624,267.564 294.555,268.696 295.692 M99.331 303.504 C 99.331 304.451,99.371 304.839,99.421 304.365 C 99.470 303.891,99.470 303.116,99.421 302.642 C 99.371 302.168,99.331 302.556,99.331 303.504 M271.795 305.284 L 268.466 308.673 271.855 305.345 C 275.003 302.253,275.348 301.895,275.184 301.895 C 275.150 301.895,273.625 303.420,271.795 305.284 M141.987 310.281 C 143.816 312.114,145.365 313.613,145.428 313.613 C 145.491 313.613,144.046 312.114,142.217 310.281 C 140.388 308.449,138.840 306.950,138.777 306.950 C 138.714 306.950,140.158 308.449,141.987 310.281 M208.954 315.279 L 207.352 316.944 209.018 315.342 C 210.565 313.854,210.788 313.613,210.620 313.613 C 210.585 313.613,209.835 314.362,208.954 315.279 M151.168 319.644 C 152.120 320.658,152.326 320.841,152.326 320.668 C 152.326 320.631,151.835 320.140,151.235 319.577 L 150.144 318.553 151.168 319.644 M156.232 324.986 C 156.661 325.428,157.063 325.790,157.126 325.790 C 157.190 325.790,156.890 325.428,156.462 324.986 C 156.033 324.543,155.631 324.182,155.568 324.182 C 155.504 324.182,155.803 324.543,156.232 324.986 M245.491 331.763 C 242.840 334.417,240.722 336.588,240.785 336.588 C 240.848 336.588,243.069 334.417,245.721 331.763 C 248.372 329.110,250.490 326.939,250.427 326.939 C 250.364 326.939,248.142 329.110,245.491 331.763 M160.827 329.810 C 161.256 330.253,161.658 330.615,161.721 330.615 C 161.785 330.615,161.486 330.253,161.057 329.810 C 160.628 329.368,160.226 329.006,160.163 329.006 C 160.099 329.006,160.398 329.368,160.827 329.810 M308.881 339.575 C 308.881 341.534,308.916 342.335,308.959 341.356 C 309.002 340.376,309.002 338.774,308.959 337.794 C 308.916 336.815,308.881 337.616,308.881 339.575 M127.513 337.048 C 127.513 337.427,127.553 337.737,127.602 337.737 C 127.651 337.737,127.736 337.427,127.792 337.048 C 127.847 336.669,127.807 336.358,127.703 336.358 C 127.598 336.358,127.513 336.669,127.513 337.048 M132.788 341.011 C 133.740 342.025,133.946 342.208,133.946 342.035 C 133.946 341.998,133.455 341.507,132.855 340.944 L 131.763 339.920 132.788 341.011 M174.842 343.825 C 175.528 344.520,176.142 345.089,176.205 345.089 C 176.268 345.089,175.758 344.520,175.072 343.825 C 174.385 343.130,173.772 342.562,173.709 342.562 C 173.646 342.562,174.156 343.130,174.842 343.825 M273.277 343.768 L 272.602 344.515 273.349 343.840 C 274.045 343.211,274.201 343.021,274.023 343.021 C 273.984 343.021,273.648 343.357,273.277 343.768 M182.079 351.292 C 182.830 352.051,183.495 352.671,183.558 352.671 C 183.621 352.671,183.059 352.051,182.309 351.292 C 181.559 350.534,180.893 349.914,180.830 349.914 C 180.767 349.914,181.329 350.534,182.079 351.292 M217.574 359.966 L 212.866 364.733 217.634 360.025 C 220.256 357.436,222.401 355.290,222.401 355.258 C 222.401 355.094,221.948 355.536,217.574 359.966 M189.661 359.104 C 190.539 359.989,191.309 360.712,191.372 360.712 C 191.435 360.712,190.769 359.989,189.891 359.104 C 189.013 358.219,188.243 357.496,188.180 357.496 C 188.117 357.496,188.783 358.219,189.661 359.104 M99.352 367.030 C 99.352 369.937,99.385 371.094,99.425 369.602 C 99.465 368.110,99.465 365.732,99.425 364.318 C 99.384 362.903,99.352 364.124,99.352 367.030 M158.989 367.260 C 160.818 369.092,162.366 370.592,162.429 370.592 C 162.493 370.592,161.048 369.092,159.219 367.260 C 157.390 365.428,155.842 363.929,155.778 363.929 C 155.715 363.929,157.160 365.428,158.989 367.260 M127.618 373.923 C 127.618 379.230,127.648 381.369,127.685 378.675 C 127.722 375.981,127.722 371.639,127.685 369.025 C 127.648 366.412,127.618 368.616,127.618 373.923 M200.000 369.443 C 200.494 369.948,200.949 370.362,201.012 370.362 C 201.075 370.362,200.723 369.948,200.230 369.443 C 199.736 368.937,199.281 368.524,199.217 368.524 C 199.154 368.524,199.506 368.937,200.000 369.443 M185.526 394.026 C 191.337 399.839,196.144 404.595,196.207 404.595 C 196.270 404.595,191.567 399.839,185.755 394.026 C 179.944 388.214,175.137 383.458,175.074 383.458 C 175.010 383.458,179.714 388.214,185.526 394.026 M99.334 387.134 C 99.334 388.208,99.373 388.647,99.422 388.110 C 99.470 387.573,99.470 386.694,99.422 386.157 C 99.373 385.620,99.334 386.060,99.334 387.134 M308.841 390.121 C 308.841 390.563,308.889 390.744,308.946 390.523 C 309.004 390.302,309.004 389.940,308.946 389.719 C 308.889 389.497,308.841 389.678,308.841 390.121 M211.831 405.457 L 204.825 412.522 211.890 405.515 C 218.455 399.004,219.058 398.392,218.896 398.392 C 218.863 398.392,215.684 401.571,211.831 405.457 M244.285 447.271 C 247.412 447.308,252.530 447.308,255.658 447.271 C 258.785 447.235,256.226 447.206,249.971 447.206 C 243.716 447.206,241.157 447.235,244.285 447.271 M159.835 447.501 C 162.890 447.537,167.956 447.537,171.093 447.501 C 174.229 447.465,171.729 447.436,165.537 447.436 C 159.345 447.435,156.779 447.465,159.835 447.501 M309.580 466.973 C 309.580 471.017,309.611 472.639,309.649 470.577 C 309.687 468.516,309.687 465.207,309.649 463.225 C 309.611 461.243,309.580 462.929,309.580 466.973 M98.416 472.947 C 98.415 474.084,98.454 474.578,98.502 474.045 C 98.550 473.512,98.551 472.581,98.503 471.977 C 98.456 471.373,98.417 471.809,98.416 472.947 M285.510 474.382 C 288.565 474.418,293.631 474.419,296.768 474.382 C 299.904 474.346,297.404 474.317,291.212 474.317 C 285.020 474.317,282.454 474.346,285.510 474.382 M201.091 474.612 C 204.219 474.648,209.337 474.648,212.464 474.612 C 215.592 474.576,213.033 474.546,206.778 474.546 C 200.523 474.546,197.964 474.576,201.091 474.612 M116.641 474.842 C 119.697 474.878,124.763 474.878,127.899 474.842 C 131.035 474.806,128.535 474.776,122.343 474.776 C 116.152 474.776,113.586 474.806,116.641 474.842 " stroke="none" fill="#818182" fill-rule="evenodd"></path><path id="path4" d="M143.937 4.305 L 147.724 4.376 147.790 10.861 L 147.857 17.346 147.851 10.798 L 147.846 4.250 143.997 4.242 L 140.149 4.233 143.937 4.305 M191.904 16.248 C 192.254 16.300,192.771 16.299,193.053 16.244 C 193.336 16.190,193.050 16.147,192.418 16.148 C 191.786 16.150,191.555 16.195,191.904 16.248 M263.817 16.248 C 264.166 16.300,264.683 16.299,264.966 16.244 C 265.248 16.190,264.963 16.147,264.331 16.148 C 263.699 16.150,263.468 16.195,263.817 16.248 M314.592 16.248 C 314.942 16.300,315.459 16.299,315.741 16.244 C 316.024 16.190,315.738 16.147,315.106 16.148 C 314.474 16.150,314.243 16.195,314.592 16.248 M366.169 16.245 C 366.453 16.300,366.918 16.300,367.203 16.245 C 367.487 16.190,367.254 16.145,366.686 16.145 C 366.117 16.145,365.885 16.190,366.169 16.245 M57.315 29.523 C 57.316 36.221,57.345 38.927,57.381 35.538 C 57.417 32.149,57.416 26.669,57.381 23.361 C 57.345 20.053,57.315 22.826,57.315 29.523 M191.445 23.600 C 191.794 23.652,192.311 23.651,192.594 23.597 C 192.876 23.542,192.590 23.499,191.959 23.501 C 191.327 23.502,191.096 23.547,191.445 23.600 M263.358 23.600 C 263.707 23.652,264.224 23.651,264.506 23.597 C 264.789 23.542,264.503 23.499,263.871 23.501 C 263.240 23.502,263.008 23.547,263.358 23.600 M314.934 23.597 C 315.218 23.652,315.684 23.652,315.968 23.597 C 316.252 23.542,316.020 23.497,315.451 23.497 C 314.882 23.497,314.650 23.542,314.934 23.597 M366.517 23.600 C 366.866 23.652,367.383 23.651,367.665 23.597 C 367.948 23.542,367.662 23.499,367.030 23.501 C 366.399 23.502,366.167 23.547,366.517 23.600 M147.837 25.101 C 147.776 25.258,147.754 30.661,147.788 37.105 L 147.850 48.823 147.906 36.937 L 147.961 25.051 153.532 24.985 L 159.104 24.920 153.525 24.866 C 149.234 24.826,147.921 24.880,147.837 25.101 M114.985 46.755 C 114.985 55.474,115.014 59.007,115.049 54.607 C 115.084 50.207,115.084 43.073,115.049 38.754 C 115.014 34.435,114.985 38.036,114.985 46.755 M212.603 40.092 C 212.602 41.229,212.641 41.723,212.689 41.190 C 212.738 40.657,212.738 39.726,212.691 39.122 C 212.643 38.518,212.604 38.955,212.603 40.092 M388.134 40.092 C 388.134 41.229,388.173 41.723,388.221 41.190 C 388.269 40.657,388.269 39.726,388.222 39.122 C 388.175 38.518,388.135 38.955,388.134 40.092 M284.515 40.207 C 284.515 41.281,284.554 41.720,284.602 41.183 C 284.651 40.646,284.651 39.767,284.602 39.230 C 284.554 38.693,284.515 39.133,284.515 40.207 M328.622 40.092 C 328.623 40.976,328.665 41.310,328.714 40.833 C 328.764 40.357,328.763 39.633,328.713 39.225 C 328.662 38.817,328.621 39.207,328.622 40.092 M353.893 39.977 C 353.893 40.798,353.935 41.134,353.986 40.724 C 354.037 40.313,354.037 39.641,353.986 39.230 C 353.935 38.820,353.893 39.156,353.893 39.977 M380.295 40.207 C 380.295 40.649,380.342 40.830,380.400 40.609 C 380.457 40.388,380.457 40.026,380.400 39.805 C 380.342 39.584,380.295 39.765,380.295 40.207 M336.412 42.045 C 336.412 42.487,336.459 42.668,336.517 42.447 C 336.575 42.226,336.575 41.864,336.517 41.643 C 336.459 41.422,336.412 41.603,336.412 42.045 M212.627 52.613 C 212.627 58.237,212.657 60.537,212.694 57.725 C 212.730 54.914,212.730 50.313,212.694 47.501 C 212.657 44.690,212.627 46.990,212.627 52.613 M284.540 52.613 C 284.540 58.237,284.570 60.537,284.606 57.725 C 284.643 54.914,284.643 50.313,284.606 47.501 C 284.570 44.690,284.540 46.990,284.540 52.613 M254.337 52.685 C 254.337 52.725,254.673 53.061,255.083 53.432 L 255.830 54.107 255.155 53.360 C 254.526 52.664,254.337 52.508,254.337 52.685 M158.294 55.080 L 161.275 55.154 161.347 58.824 L 161.419 62.493 161.410 58.760 L 161.401 55.026 158.357 55.015 L 155.312 55.005 158.294 55.080 M353.925 69.385 C 353.925 74.756,353.955 76.953,353.992 74.268 C 354.028 71.582,354.028 67.188,353.992 64.503 C 353.955 61.818,353.925 64.015,353.925 69.385 M5.837 75.359 C 5.837 77.444,5.872 78.297,5.915 77.254 C 5.957 76.212,5.957 74.506,5.915 73.464 C 5.872 72.421,5.837 73.274,5.837 75.359 M209.420 197.588 C 209.913 198.093,210.369 198.507,210.432 198.507 C 210.495 198.507,210.143 198.093,209.650 197.588 C 209.156 197.082,208.701 196.669,208.637 196.669 C 208.574 196.669,208.926 197.082,209.420 197.588 M191.726 204.308 L 187.593 208.501 191.786 204.368 C 195.682 200.528,196.083 200.115,195.919 200.115 C 195.887 200.115,194.000 202.002,191.726 204.308 M226.077 214.015 C 230.182 218.122,233.593 221.482,233.656 221.482 C 233.719 221.482,230.412 218.122,226.307 214.015 C 222.201 209.908,218.791 206.548,218.728 206.548 C 218.664 206.548,221.972 209.908,226.077 214.015 M164.960 230.844 L 161.172 234.693 165.020 230.904 C 168.595 227.385,168.972 226.996,168.808 226.996 C 168.775 226.996,167.044 228.728,164.960 230.844 M208.386 235.382 C 209.455 236.456,210.380 237.335,210.444 237.335 C 210.507 237.335,209.684 236.456,208.616 235.382 C 207.547 234.308,206.621 233.429,206.558 233.429 C 206.495 233.429,207.317 234.308,208.386 235.382 M218.495 244.989 C 218.495 245.028,218.831 245.364,219.242 245.735 L 219.989 246.410 219.314 245.663 C 218.685 244.967,218.495 244.811,218.495 244.989 M146.808 248.765 L 144.170 251.465 146.870 248.826 C 149.377 246.376,149.673 246.065,149.508 246.065 C 149.474 246.065,148.260 247.280,146.808 248.765 M181.962 253.820 L 177.714 258.128 182.022 253.879 C 184.391 251.543,186.330 249.604,186.330 249.572 C 186.330 249.408,185.909 249.817,181.962 253.820 M180.471 260.770 C 181.730 262.033,182.812 263.067,182.875 263.067 C 182.938 263.067,181.960 262.033,180.701 260.770 C 179.442 259.506,178.360 258.472,178.297 258.472 C 178.234 258.472,179.212 259.506,180.471 260.770 M223.779 261.114 C 223.221 261.683,222.816 262.148,222.880 262.148 C 222.943 262.148,223.451 261.683,224.009 261.114 C 224.567 260.546,224.972 260.080,224.909 260.080 C 224.846 260.080,224.338 260.546,223.779 261.114 M129.692 265.652 L 127.168 268.237 129.753 265.713 C 132.154 263.369,132.442 263.067,132.276 263.067 C 132.243 263.067,131.080 264.230,129.692 265.652 M217.806 266.628 C 216.864 267.576,216.146 268.352,216.209 268.352 C 216.272 268.352,217.094 267.576,218.036 266.628 C 218.977 265.681,219.696 264.905,219.632 264.905 C 219.569 264.905,218.747 265.681,217.806 266.628 M195.979 276.916 C 195.979 276.950,196.781 277.752,197.760 278.696 L 199.540 280.414 197.823 278.633 C 196.228 276.979,195.979 276.748,195.979 276.916 M250.201 277.375 C 250.201 277.410,251.002 278.211,251.982 279.156 L 253.762 280.873 252.045 279.092 C 250.450 277.439,250.201 277.207,250.201 277.375 M110.167 285.123 C 108.654 286.640,107.468 287.881,107.532 287.881 C 107.595 287.881,108.884 286.640,110.396 285.123 C 111.909 283.607,113.094 282.366,113.031 282.366 C 112.968 282.366,111.679 283.607,110.167 285.123 M148.980 285.640 L 148.306 286.387 149.052 285.712 C 149.463 285.341,149.799 285.005,149.799 284.966 C 149.799 284.788,149.609 284.944,148.980 285.640 M236.641 287.364 L 234.693 289.374 236.703 287.426 C 237.809 286.355,238.713 285.450,238.713 285.416 C 238.713 285.249,238.450 285.496,236.641 287.364 M262.148 289.092 C 262.148 289.127,262.949 289.928,263.929 290.873 L 265.709 292.590 263.992 290.810 C 262.397 289.156,262.148 288.924,262.148 289.092 M144.385 290.465 L 143.711 291.212 144.457 290.537 C 144.868 290.166,145.204 289.830,145.204 289.790 C 145.204 289.613,145.014 289.769,144.385 290.465 M217.000 307.237 L 212.407 311.890 217.059 307.297 C 219.618 304.771,221.712 302.677,221.712 302.644 C 221.712 302.481,221.267 302.914,217.000 307.237 M99.343 309.592 C 99.343 311.235,99.380 311.877,99.424 311.019 C 99.468 310.160,99.468 308.816,99.423 308.032 C 99.378 307.247,99.342 307.949,99.343 309.592 M308.639 312.234 C 308.639 313.308,308.678 313.748,308.727 313.211 C 308.775 312.674,308.775 311.795,308.727 311.258 C 308.678 310.721,308.639 311.160,308.639 312.234 M148.411 316.887 C 148.974 317.487,149.465 317.978,149.502 317.978 C 149.675 317.978,149.492 317.772,148.478 316.820 L 147.387 315.796 148.411 316.887 M257.206 320.103 L 253.073 324.296 257.266 320.163 C 261.162 316.323,261.563 315.910,261.399 315.910 C 261.366 315.910,259.479 317.797,257.206 320.103 M308.650 323.262 C 308.650 325.095,308.685 325.844,308.729 324.928 C 308.773 324.012,308.773 322.513,308.729 321.597 C 308.685 320.681,308.650 321.430,308.650 323.262 M154.164 322.918 C 154.593 323.360,154.995 323.722,155.059 323.722 C 155.122 323.722,154.823 323.360,154.394 322.918 C 153.965 322.476,153.563 322.114,153.500 322.114 C 153.437 322.114,153.736 322.476,154.164 322.918 M158.300 327.240 C 158.300 327.280,158.636 327.616,159.047 327.987 L 159.793 328.662 159.118 327.915 C 158.489 327.219,158.300 327.063,158.300 327.240 M163.929 333.142 C 164.679 333.900,165.345 334.520,165.408 334.520 C 165.471 334.520,164.909 333.900,164.159 333.142 C 163.408 332.384,162.743 331.763,162.680 331.763 C 162.616 331.763,163.179 332.384,163.929 333.142 M276.616 340.207 L 275.129 341.758 276.680 340.271 C 278.121 338.890,278.336 338.656,278.167 338.656 C 278.132 338.656,277.434 339.354,276.616 340.207 M171.846 340.781 C 172.798 341.796,173.004 341.978,173.004 341.805 C 173.004 341.769,172.513 341.277,171.913 340.714 L 170.821 339.690 171.846 340.781 M229.406 348.133 L 225.273 352.326 229.466 348.193 C 231.772 345.920,233.659 344.033,233.659 344.000 C 233.659 343.836,233.246 344.238,229.406 348.133 M265.248 351.809 L 258.357 358.759 265.307 351.868 C 271.766 345.464,272.361 344.859,272.198 344.859 C 272.166 344.859,269.039 347.987,265.248 351.809 M137.163 345.148 C 137.163 345.181,139.980 347.998,143.423 351.409 L 149.684 357.611 143.482 351.350 C 137.719 345.532,137.163 344.986,137.163 345.148 M308.882 349.225 C 308.882 351.310,308.916 352.163,308.959 351.120 C 309.002 350.078,309.002 348.372,308.959 347.329 C 308.916 346.287,308.882 347.140,308.882 349.225 M99.353 352.096 C 99.354 355.382,99.386 356.694,99.425 355.012 C 99.464 353.331,99.464 350.642,99.425 349.039 C 99.385 347.435,99.353 348.811,99.353 352.096 M179.092 348.306 C 179.715 348.937,180.276 349.454,180.339 349.454 C 180.402 349.454,179.945 348.937,179.322 348.306 C 178.700 347.674,178.139 347.157,178.076 347.157 C 178.013 347.157,178.470 347.674,179.092 348.306 M186.090 355.485 C 187.042 356.500,187.249 356.682,187.249 356.510 C 187.249 356.473,186.758 355.982,186.157 355.418 L 185.066 354.394 186.090 355.485 M205.040 372.717 L 204.365 373.464 205.112 372.789 C 205.523 372.418,205.859 372.082,205.859 372.042 C 205.859 371.865,205.669 372.021,205.040 372.717 M167.030 375.302 C 168.606 376.881,169.947 378.173,170.010 378.173 C 170.074 378.173,168.836 376.881,167.260 375.302 C 165.684 373.722,164.343 372.430,164.280 372.430 C 164.217 372.430,165.455 373.722,167.030 375.302 M281.085 388.053 C 281.085 390.643,281.118 391.703,281.159 390.408 C 281.200 389.113,281.200 386.993,281.159 385.698 C 281.118 384.403,281.085 385.462,281.085 388.053 M308.862 387.364 C 308.862 388.185,308.903 388.521,308.954 388.110 C 309.005 387.700,309.005 387.028,308.954 386.617 C 308.903 386.206,308.862 386.542,308.862 387.364 M127.341 388.397 C 127.344 388.903,127.391 389.083,127.446 388.797 C 127.501 388.511,127.499 388.098,127.441 387.878 C 127.384 387.658,127.339 387.892,127.341 388.397 M288.758 392.820 C 291.831 392.856,296.794 392.856,299.786 392.820 C 302.779 392.784,300.264 392.754,294.199 392.754 C 288.133 392.754,285.685 392.784,288.758 392.820 M198.966 407.237 C 199.395 407.679,199.797 408.041,199.860 408.041 C 199.924 408.041,199.625 407.679,199.196 407.237 C 198.767 406.795,198.365 406.433,198.302 406.433 C 198.238 406.433,198.537 406.795,198.966 407.237 M274.513 447.272 C 277.460 447.308,282.216 447.308,285.082 447.271 C 287.948 447.235,285.537 447.205,279.724 447.205 C 273.912 447.205,271.567 447.235,274.513 447.272 M190.194 447.501 C 193.140 447.538,197.896 447.538,200.762 447.501 C 203.629 447.465,201.218 447.435,195.405 447.435 C 189.592 447.435,187.247 447.465,190.194 447.501 M105.645 447.731 C 108.591 447.767,113.347 447.767,116.213 447.731 C 119.079 447.694,116.669 447.665,110.856 447.665 C 105.043 447.665,102.698 447.695,105.645 447.731 M98.437 455.370 C 98.437 459.604,98.468 461.335,98.506 459.219 C 98.544 457.102,98.544 453.639,98.506 451.522 C 98.468 449.406,98.437 451.137,98.437 455.370 M256.133 474.382 C 259.080 474.419,263.835 474.419,266.702 474.382 C 269.568 474.346,267.157 474.316,261.344 474.316 C 255.531 474.316,253.186 474.346,256.133 474.382 M171.814 474.612 C 174.760 474.649,179.516 474.648,182.382 474.612 C 185.248 474.576,182.837 474.546,177.025 474.546 C 171.212 474.546,168.867 474.576,171.814 474.612 M99.663 474.839 C 100.331 474.886,101.365 474.885,101.961 474.838 C 102.557 474.791,102.010 474.753,100.747 474.754 C 99.483 474.754,98.995 474.793,99.663 474.839 " stroke="none" fill="#a4a4a4" fill-rule="evenodd"></path></g></svg>