<svg height="512pt" viewBox="0 0 512.00057 512" width="512pt" xmlns="http://www.w3.org/2000/svg"><path d="m512 245.332031v149.335938c0 4.691406-2.988281 8.746093-7.464844 10.238281l-341.335937 106.667969c-1.066407.210937-2.132813.425781-3.199219.425781v-160l351.359375-109.867188c.425781 1.066407.640625 2.132813.640625 3.199219zm0 0" fill="#ffd54f"/><path d="m160 352v160c-1.921875 0-3.625-.425781-5.332031-1.492188l-149.335938-85.335937c-3.199219-1.917969-5.332031-5.332031-5.332031-9.171875v-149.332031c0-1.921875.425781-3.839844 1.492188-5.335938zm0 0" fill="#ffa000"/><path d="m511.359375 247.46875-351.359375 109.863281-158.507812-90.664062c1.28125-2.347657 3.414062-4.054688 5.972656-4.90625l341.335937-106.667969c2.773438-.851562 5.972657-.425781 8.53125 1.066406l149.335938 85.332032c2.34375 1.28125 4.050781 3.414062 4.691406 5.976562zm0 0" fill="#ffc107"/><path d="m450.816406 154.816406-127.125-63.550781c-22.761718-11.351563-51.96875-5.207031-68.183594 14.269531l-146.367187 175.636719c-2.941406 3.542969-3.285156 8.597656-.832031 12.503906 1.964844 3.15625 5.417968 4.992188 9.023437 4.992188.855469 0 1.730469-.109375 2.582031-.320313l324.011719-81.023437c14.953125-3.714844 25.386719-17.066407 25.386719-32.554688.019531-12.757812-7.082031-24.234375-18.496094-29.953125zm0 0" fill="#cfd8dc"/><path d="m477.011719 0h-9.8125c-7.933594 0-15.699219 2.730469-21.867188 7.660156l-59.796875 47.847656c-7.914062 6.316407-10.195312 17.027344-5.546875 26.027344 3.714844 7.191406 10.859375 11.394532 18.539063 11.394532 1.964844 0 3.949218-.277344 5.910156-.832032l82.195312-23.488281c14.933594-4.226563 25.367188-18.089844 25.367188-33.621094 0-19.308593-15.703125-34.988281-34.988281-34.988281zm0 0" fill="#455a64"/><path d="m160 512c-1.8125 0-3.648438-.449219-5.289062-1.386719l-149.335938-85.332031c-3.328125-1.921875-5.375-5.441406-5.375-9.28125v-149.332031c0-3.820313 2.027344-7.316407 5.3125-9.238281 3.285156-1.898438 7.339844-1.921876 10.644531-.042969l149.332031 85.332031c3.328126 1.921875 5.378907 5.441406 5.378907 9.28125v149.332031c0 3.820313-2.027344 7.320313-5.3125 9.238281-1.664063.960938-3.5 1.429688-5.355469 1.429688zm-138.667969-102.1875 128 73.152344v-124.777344l-128-73.152344zm0 0"/><path d="m192 309.332031c-1.855469 0-3.753906-.46875-5.484375-1.511719l-32-19.203124c-5.054687-3.050782-6.675781-9.578126-3.644531-14.652344 3.050781-5.015625 9.578125-6.699219 14.632812-3.648438l32 19.199219c5.054688 3.050781 6.675782 9.578125 3.648438 14.65625-2.003906 3.304687-5.546875 5.160156-9.152344 5.160156zm0 0"/><path d="m256 288c-1.855469 0-3.753906-.46875-5.484375-1.515625l-28.242187-16.9375c-5.058594-3.027344-6.679688-9.578125-3.648438-14.632813 3.027344-5.058593 9.554688-6.722656 14.632812-3.671874l28.246094 16.9375c5.054688 3.03125 6.675782 9.582031 3.648438 14.636718-2.003906 3.328125-5.546875 5.183594-9.152344 5.183594zm0 0"/><path d="m320 266.667969c-1.855469 0-3.753906-.46875-5.484375-1.515625l-21.949219-13.164063c-5.058594-3.027343-6.679687-9.578125-3.648437-14.632812 3.027343-5.054688 9.578125-6.71875 14.632812-3.667969l21.953125 13.160156c5.054688 3.03125 6.675782 9.578125 3.648438 14.636719-2.003906 3.328125-5.546875 5.183594-9.152344 5.183594zm0 0"/><path d="m384 245.332031c-1.855469 0-3.753906-.46875-5.484375-1.511719l-15.679687-9.410156c-5.054688-3.050781-6.675782-9.578125-3.648438-14.65625 3.03125-5.011718 9.558594-6.699218 14.636719-3.648437l15.679687 9.410156c5.054688 3.050781 6.675782 9.578125 3.648438 14.65625-2.003906 3.304687-5.546875 5.160156-9.152344 5.160156zm0 0"/><path d="m160 512c-4.542969 0-8.746094-2.921875-10.175781-7.488281-1.769531-5.632813 1.363281-11.605469 6.996093-13.375l333.847657-104.300781v-126.996094l-327.488281 102.359375c-5.589844 1.746093-11.605469-1.367188-13.355469-7-1.769531-5.632813 1.363281-11.605469 6.996093-13.375l341.335938-106.667969c3.261719-.980469 6.761719-.402344 9.492188 1.578125 2.730468 2.007813 4.351562 5.207031 4.351562 8.597656v149.335938c0 4.671875-3.03125 8.789062-7.488281 10.195312l-341.332031 106.667969c-1.046876.320312-2.132813.46875-3.179688.46875zm0 0"/><path d="m501.332031 256c-1.789062 0-3.605469-.449219-5.289062-1.386719l-64.917969-37.097656c-5.121094-2.945313-6.890625-9.453125-3.96875-14.570313 2.921875-5.121093 9.410156-6.871093 14.550781-3.992187l64.917969 37.101563c5.117188 2.941406 6.890625 9.449218 3.96875 14.570312-1.964844 3.433594-5.570312 5.375-9.261719 5.375zm0 0"/><path d="m10.667969 277.332031c-4.714844 0-9.023438-3.132812-10.285157-7.914062-1.511718-5.695313 1.855469-11.539063 7.554688-13.054688l160-42.667969c5.714844-1.363281 11.539062 1.855469 13.054688 7.554688 1.515624 5.695312-1.855469 11.539062-7.550782 13.054688l-160 42.667968c-.960937.234375-1.878906.359375-2.773437.359375zm0 0"/><path d="m245.332031 213.332031c-3.625 0-7.144531-1.855469-9.152343-5.183593-3.027344-5.035157-1.386719-11.605469 3.648437-14.632813l103.574219-62.144531 20.011718-50.003906c.960938-2.433594 2.792969-4.417969 5.140626-5.589844l21.332031-10.667969c5.269531-2.644531 11.671875-.46875 14.316406 4.777344 2.644531 5.269531.488281 11.671875-4.777344 14.316406l-17.707031 8.851563-19.820312 49.558593c-.875 2.175781-2.410157 3.988281-4.414063 5.183594l-106.667969 64c-1.707031 1.066406-3.605468 1.535156-5.484375 1.535156zm0 0"/><path d="m117.332031 298.667969c-3.605469 0-7.058593-1.835938-9.023437-4.992188-2.453125-3.90625-2.109375-8.960937.832031-12.503906l146.367187-175.636719c16.214844-19.476562 45.398438-25.621094 68.183594-14.269531l127.125 63.550781c11.414063 5.71875 18.515625 17.195313 18.515625 29.953125 0 15.507813-10.429687 28.863281-25.386719 32.554688l-324.03125 81.023437c-.851562.210938-1.726562.320313-2.582031.320313zm181.292969-192c-10.347656 0-20.097656 4.5625-26.710938 12.523437l-125.460937 150.546875 292.351563-73.109375c5.417968-1.34375 9.195312-6.1875 9.195312-11.773437 0-4.714844-2.582031-8.875-6.71875-10.96875l-127.105469-63.550781c-4.820312-2.390626-10.195312-3.667969-15.550781-3.667969zm0 0"/><path d="m398.507812 92.929688c-7.679687 0-14.828124-4.203126-18.539062-11.394532-4.652344-9-2.367188-19.710937 5.546875-26.027344l59.796875-47.847656c6.1875-4.929687 13.953125-7.660156 21.886719-7.660156h9.8125c19.285156 0 34.988281 15.679688 34.988281 34.988281 0 15.550781-10.433594 29.394531-25.367188 33.640625l-82.195312 23.488282c-1.984375.554687-3.96875.8125-5.929688.8125zm68.691407-71.597657c-3.09375 0-6.121094 1.066407-8.511719 2.988281l-58.539062 46.828126 80.621093-23.019532c5.824219-1.664062 9.898438-7.082031 9.898438-13.140625 0-7.53125-6.125-13.65625-13.65625-13.65625zm0 0"/></svg>