<svg height="512pt" viewBox="0 -26 512 512" width="512pt" xmlns="http://www.w3.org/2000/svg"><g fill-rule="evenodd"><path d="m333.269531 10v50.460938l21.027344-10.511719 21.023437 10.511719v-50.460938zm0 0" fill="#fcac81"/><path d="m354.296875 49.949219-21.027344 10.511719v-50.460938h-60.449219c-9.25 0-16.820312 7.570312-16.820312 16.820312v130.359376c0 9.253906 7.570312 16.820312 16.820312 16.820312h162.949219c9.25 0 16.820313-7.566406 16.820313-16.820312v-130.359376c0-9.25-7.570313-16.820312-16.820313-16.820312h-60.449219v50.460938zm0 0" fill="#db8c60"/><path d="m136.679688 10v50.460938l21.023437-10.511719 21.027344 10.511719v-50.460938zm0 0" fill="#fcac81"/><path d="m157.703125 49.949219-21.023437 10.511719v-50.460938h-60.449219c-9.253907 0-16.820313 7.570312-16.820313 16.820312v130.359376c0 9.253906 7.570313 16.820312 16.820313 16.820312h162.949219c9.25 0 16.820312-7.566406 16.820312-16.820312v-130.359376c0-9.25-7.570312-16.820312-16.820312-16.820312h-60.449219v50.460938zm0 0" fill="#db8c60"/><path d="m333.269531 174v50.460938l21.027344-10.511719 21.023437 10.511719v-50.460938zm0 0" fill="#fcac81"/><path d="m354.296875 213.949219-21.027344 10.511719v-50.460938h-60.449219c-9.25 0-16.820312 7.570312-16.820312 16.820312v130.359376c0 9.25 7.570312 16.820312 16.820312 16.820312h162.949219c9.25 0 16.820313-7.570312 16.820313-16.820312v-130.359376c0-9.25-7.570313-16.820312-16.820313-16.820312h-60.449219v50.460938zm0 0" fill="#db8c60"/><path d="m136.679688 174v50.460938l21.023437-10.511719 21.027344 10.511719v-50.460938zm0 0" fill="#fcac81"/><path d="m157.703125 213.949219-21.023437 10.511719v-50.460938h-60.449219c-9.253907 0-16.820313 7.570312-16.820313 16.820312v130.359376c0 9.25 7.570313 16.820312 16.820313 16.820312h162.949219c9.25 0 16.820312-7.570312 16.820312-16.820312v-130.359376c0-9.25-7.570312-16.820312-16.820312-16.820312h-60.449219v50.460938zm0 0" fill="#db8c60"/><path d="m239.179688 338h-229.179688v32h492v-32zm0 0" fill="#ae5e3c"/><path d="m34 370h48v48h-48zm0 0" fill="#db8c60"/><path d="m232 370h48v48h-48zm0 0" fill="#db8c60"/><path d="m430 370h48v48h-48zm0 0" fill="#db8c60"/><path d="m478 418h-468v32h492v-32zm0 0" fill="#ae5e3c"/></g><path d="m422.589844 297.996094h-41.035156c-5.519532 0-10 4.476562-10 10 0 5.523437 4.480468 10 10 10h41.035156c5.523437 0 10-4.476563 10-10 0-5.523438-4.476563-10-10-10zm0 0"/><path d="m352.824219 298h-.234375c-5.523438 0-10 4.476562-10 10s4.476562 10 10 10h.234375c5.523437 0 10-4.476562 10-10s-4.476563-10-10-10zm0 0"/><path d="m502 380c5.523438 0 10-4.476562 10-10v-32c0-5.523438-4.476562-10-10-10h-40.289062c.570312-2.179688.878906-4.464844.878906-6.820312v-130.359376c0-6.363281-2.230469-12.214843-5.949219-16.820312 3.714844-4.601562 5.949219-10.453125 5.949219-16.820312v-130.359376c0-14.789062-12.03125-26.820312-26.820313-26.820312h-162.949219c-6.363281 0-12.214843 2.234375-16.820312 5.949219-4.605469-3.714844-10.457031-5.949219-16.820312-5.949219h-102.5c-5.523438 0-10 4.476562-10 10v50.460938c0 3.46875 1.792968 6.6875 4.742187 8.507812 1.605469.992188 3.429687 1.492188 5.257813 1.492188 1.527343 0 3.0625-.347657 4.472656-1.054688l16.554687-8.277344 16.550781 8.277344c3.101563 1.550781 6.78125 1.382812 9.730469-.4375 2.949219-1.824219 4.742188-5.042969 4.742188-8.507812v-40.460938h50.449219c3.699218 0 6.820312 3.125 6.820312 6.820312v130.359376c0 3.695312-3.125 6.820312-6.820312 6.820312h-162.949219c-3.699219 0-6.820313-3.125-6.820313-6.820312v-130.359376c0-2.148437 1.003906-4.136718 2.757813-5.457031.242187-.179687.496093-.347656.757812-.496093 4.8125-2.710938 6.511719-8.808594 3.800781-13.621094-2.710937-4.8125-8.808593-6.515625-13.621093-3.800782-1.027344.578126-2.023438 1.230469-2.964844 1.9375-6.71875 5.058594-10.730469 13.070313-10.730469 21.4375v130.359376c0 6.363281 2.234375 12.214843 5.949219 16.820312-3.714844 4.605469-5.949219 10.453125-5.949219 16.820312v130.359376c0 2.355468.308594 4.640624.878906 6.820312h-40.289062c-5.523438 0-10 4.476562-10 10v32c0 5.523438 4.476562 10 10 10h14v28h-14c-5.523438 0-10 4.476562-10 10v32c0 5.523438 4.476562 10 10 10h492c5.523438 0 10-4.476562 10-10v-32c0-5.523438-4.476562-10-10-10h-14v-28zm-333.269531-335.71875-6.554688-3.277344c-2.8125-1.40625-6.128906-1.40625-8.941406 0l-6.554687 3.277344v-24.28125h22.050781zm97.269531 276.898438v-130.359376c0-3.695312 3.125-6.820312 6.820312-6.820312h50.449219v40.460938c0 3.46875 1.792969 6.6875 4.742188 8.507812 2.949219 1.824219 6.632812 1.988281 9.730469.4375l16.550781-8.277344 16.554687 8.277344c1.414063.707031 2.945313 1.058594 4.472656 1.058594 1.828126 0 3.652344-.503906 5.257813-1.496094 2.949219-1.820312 4.742187-5.039062 4.742187-8.503906v-40.464844h50.449219c3.695313 0 6.820313 3.125 6.820313 6.820312v130.359376c0 3.699218-3.125 6.820312-6.820313 6.820312h-162.949219c-3.695312 0-6.820312-3.121094-6.820312-6.820312zm99.320312-137.179688v24.28125l-6.554687-3.277344c-2.8125-1.40625-6.128906-1.40625-8.941406 0l-6.554688 3.277344v-24.28125zm-22.050781-164h22.054688v24.28125l-6.554688-3.277344c-2.816406-1.40625-6.128906-1.40625-8.945312 0l-6.554688 3.277344zm-70.449219 0h50.449219v40.460938c0 3.46875 1.792969 6.6875 4.742188 8.507812 1.605469.992188 3.429687 1.492188 5.257812 1.492188 1.527344 0 3.0625-.347657 4.472657-1.054688l16.554687-8.277344 16.550781 8.277344c3.101563 1.546875 6.78125 1.382812 9.730469-.4375 2.949219-1.824219 4.742187-5.042969 4.742187-8.507812v-40.460938h50.449219c3.695313 0 6.820313 3.125 6.820313 6.820312v130.359376c0 3.695312-3.125 6.820312-6.820313 6.820312h-162.949219c-3.695312 0-6.820312-3.125-6.820312-6.820312v-130.359376c0-3.695312 3.125-6.820312 6.820312-6.820312zm-126.140624 164h22.050781v24.28125l-6.554688-3.277344c-2.8125-1.40625-6.128906-1.40625-8.941406 0l-6.554687 3.277344zm-77.269532 137.179688v-130.359376c0-3.695312 3.125-6.820312 6.820313-6.820312h50.449219v40.460938c0 3.46875 1.792968 6.6875 4.742187 8.507812s6.628906 1.988281 9.730469.4375l16.550781-8.277344 16.554687 8.277344c1.414063.707031 2.945313 1.058594 4.472657 1.058594 1.828125 0 3.652343-.503906 5.257812-1.496094 2.949219-1.820312 4.742188-5.039062 4.742188-8.503906v-40.464844h50.449219c3.699218 0 6.820312 3.125 6.820312 6.820312v130.359376c0 3.699218-3.125 6.820312-6.820312 6.820312h-162.949219c-3.699219 0-6.820313-3.121094-6.820313-6.820312zm-49.410156 26.820312h472v12h-472zm270 60v-28h130v28zm-198 0v-28h130v28zm150-28h28v28h-28zm-198 0h28v28h-28zm448 60h-472v-12h472zm-24-32h-28v-28h28zm0 0"/><path d="m96.445312 20h.269532c5.523437 0 10-4.476562 10-10s-4.476563-10-10-10h-.269532c-5.523437 0-10 4.476562-10 10s4.476563 10 10 10zm0 0"/></svg>